<svg width="14" height="14" viewBox="0 0 14 14" fill="none" xmlns="http://www.w3.org/2000/svg">
<path fill-rule="evenodd" clip-rule="evenodd" d="M11.6049 7.60843C11.7231 7.63723 11.8437 7.66662 11.9601 7.66662C12.9002 7.83521 13.5899 8.645 13.6067 9.59996V11.6C13.6094 12.1723 13.3667 12.7184 12.9401 13.1C12.573 13.427 12.0984 13.6073 11.6067 13.6066H11.3534C5.60529 12.8969 1.0707 8.3788 0.34008 2.63329C0.260596 2.05735 0.435669 1.47533 0.8197 1.03881C1.20373 0.602294 1.75871 0.354497 2.34008 0.359955H4.34008C5.32444 0.345644 6.17283 1.0498 6.34008 2.01996C6.36008 2.17329 6.38675 2.32662 6.42008 2.47329C6.48737 2.76982 6.57423 3.06157 6.68008 3.34662C6.91309 3.98712 6.62555 4.70024 6.01341 4.99996L5.73341 5.18662C6.09463 5.83595 6.54326 6.43263 7.06675 6.95996C7.59407 7.48344 8.19075 7.93207 8.84008 8.29329L8.98675 7.99329C9.28646 7.38116 9.99958 7.09361 10.6401 7.32662C10.9245 7.43428 11.2164 7.52117 11.5134 7.58662C11.5437 7.5935 11.5742 7.60094 11.6049 7.60843ZM12.0667 12.1666C12.2106 12.0402 12.2932 11.8581 12.2934 11.6666L12.2801 9.58662C12.2872 9.26683 12.0662 8.98705 11.7534 8.91996C11.5712 8.89329 11.3912 8.85995 11.2134 8.81995C10.8565 8.73895 10.5047 8.63654 10.1601 8.51329L9.74675 9.44662C9.67155 9.60836 9.53469 9.73322 9.36675 9.79329C9.20444 9.85997 9.02239 9.85997 8.86008 9.79329C6.80491 8.83382 5.15288 7.18179 4.19341 5.12662C4.11874 4.96578 4.11122 4.78182 4.17253 4.61542C4.23383 4.44902 4.3589 4.3139 4.52008 4.23996L5.45341 3.80662C5.32625 3.47008 5.22376 3.12472 5.14675 2.77329C5.10675 2.59551 5.07341 2.41551 5.04675 2.23329C4.97965 1.92053 4.69988 1.69951 4.38008 1.70662H2.38008C2.1886 1.70686 2.00646 1.78943 1.88008 1.93329C1.75219 2.0851 1.69197 2.28262 1.71341 2.47996C2.34756 7.619 6.3841 11.6748 11.5201 12.3333C11.7176 12.3572 11.9161 12.2967 12.0667 12.1666Z" fill="#212121"/>
</svg>
