<svg width="14" height="14" viewBox="0 0 14 14" fill="none" xmlns="http://www.w3.org/2000/svg">
<path fill-rule="evenodd" clip-rule="evenodd" d="M0.333496 7.00004C0.333496 3.31814 3.31826 0.333374 7.00016 0.333374C8.76827 0.333374 10.464 1.03575 11.7142 2.286C12.9644 3.53624 13.6668 5.23193 13.6668 7.00004C13.6668 10.6819 10.6821 13.6667 7.00016 13.6667C3.31826 13.6667 0.333496 10.6819 0.333496 7.00004ZM7.66683 11.6667V12.2867C10.0803 11.9807 11.9808 10.0802 12.2868 7.66671H11.6668C11.2986 7.66671 11.0002 7.36823 11.0002 7.00004C11.0002 6.63185 11.2986 6.33337 11.6668 6.33337H12.2868C11.9808 3.91991 10.0803 2.01943 7.66683 1.71337V2.33337C7.66683 2.70156 7.36835 3.00004 7.00016 3.00004C6.63197 3.00004 6.3335 2.70156 6.3335 2.33337V1.71337C3.92004 2.01943 2.01955 3.91991 1.7135 6.33337H2.3335C2.70169 6.33337 3.00016 6.63185 3.00016 7.00004C3.00016 7.36823 2.70169 7.66671 2.3335 7.66671H1.7135C2.01955 10.0802 3.92004 11.9807 6.3335 12.2867V11.6667C6.3335 11.2985 6.63197 11 7.00016 11C7.36835 11 7.66683 11.2985 7.66683 11.6667ZM9.0935 4.03337L5.76016 5.44671C5.60477 5.51404 5.48083 5.63798 5.4135 5.79337L4.00016 9.12671C3.89275 9.37681 3.94816 9.6671 4.14016 9.86004C4.26325 9.98565 4.43098 10.0575 4.60683 10.06C4.69907 10.0601 4.79018 10.0396 4.8735 10L8.20683 8.58671C8.36222 8.51938 8.48617 8.39543 8.5535 8.24004L9.96683 4.90671C10.0722 4.65682 10.0157 4.36801 9.82396 4.17624C9.6322 3.98448 9.34338 3.92799 9.0935 4.03337ZM5.9135 8.10004L7.4335 7.43337L8.10016 5.91337L6.58016 6.58004L5.9135 8.10004Z" fill="#212121"/>
</svg>
