<svg width="14" height="12" viewBox="0 0 14 12" fill="none" xmlns="http://www.w3.org/2000/svg">
<path fill-rule="evenodd" clip-rule="evenodd" d="M11.6668 0.666626H2.3335C1.22893 0.666626 0.333496 1.56206 0.333496 2.66663V9.33329C0.333496 10.4379 1.22893 11.3333 2.3335 11.3333H11.6668C12.7714 11.3333 13.6668 10.4379 13.6668 9.33329V2.66663C13.6668 1.56206 12.7714 0.666626 11.6668 0.666626ZM11.3935 1.99996L7.4735 5.91996C7.34832 6.04617 7.17792 6.11716 7.00016 6.11716C6.8224 6.11716 6.65201 6.04617 6.52683 5.91996L2.60683 1.99996H11.3935ZM11.6668 9.99996C12.035 9.99996 12.3335 9.70148 12.3335 9.33329V2.93996L8.4135 6.85996C7.63265 7.63983 6.36768 7.63983 5.58683 6.85996L1.66683 2.93996V9.33329C1.66683 9.70148 1.96531 9.99996 2.3335 9.99996H11.6668Z" fill="#212121"/>
</svg>
